<?xml version="1.0" encoding="utf-8"?>
<!-- Svg Vector Icons : http://www.onlinewebfonts.com/icon -->
<!DOCTYPE svg PUBLIC "-//W3C//DTD SVG 1.1//EN" "http://www.w3.org/Graphics/SVG/1.1/DTD/svg11.dtd">
<svg version="1.1" xmlns="http://www.w3.org/2000/svg" xmlns:xlink="http://www.w3.org/1999/xlink" x="0px" y="0px" viewBox="0 0 1000 1000" enable-background="new 0 0 1000 1000" xml:space="preserve">
<metadata> Svg Vector Icons : http://www.onlinewebfonts.com/icon </metadata>
<g><g transform="matrix(1 0 0 -1 0 1536)"><path d="M500,1493.3l490-196V1232h-65.3c0-8.8-3.5-16.5-10.5-23s-15.2-9.7-24.8-9.7H110.6c-9.5,0-17.8,3.2-24.8,9.7s-10.5,14.1-10.5,23H10v65.3L500,1493.3z M140.7,1166.7h130.7v-392h65.3v392h130.7v-392h65.3v392h130.7v-392h65.3v392h130.7v-392h30.1c9.5,0,17.8-3.2,24.8-9.7c7-6.5,10.5-14.1,10.5-23v-32.7H75.3V742c0,8.8,3.5,16.5,10.5,23c7,6.5,15.2,9.7,24.8,9.7h30.1V1166.7z M954.8,676.7c9.5,0,17.8-3.2,24.8-9.7c7-6.5,10.5-14.1,10.5-23v-65.3H10V644c0,8.8,3.5,16.5,10.5,23c7,6.5,15.2,9.7,24.8,9.7H954.8z"/></g></g>
</svg>