<?xml version="1.0" encoding="utf-8"?>
<svg version="1.1" x="0px" y="0px" viewBox="0 0 100 125" enable-background="new 0 0 100 100" xmlns="http://www.w3.org/2000/svg">
  <path d="M40.948,47.388L25.363,32.316c-0.926-0.468-2.04-0.408-2.927,0.123C21.542,32.967,21,33.912,21,34.928V45H10  c-2.761,0-5,2.239-5,5c0,2.762,2.239,5,5,5h11v10.075c0,1.013,0.542,1.962,1.435,2.489C22.913,67.849,23.461,68,24.009,68  c0.463,0,0.926-0.105,1.353-0.313l15.585-15.072C41.874,51.751,42.6,51.107,42.6,50C42.6,48.896,41.98,48.295,40.948,47.388z"/>
  <g>
    <path d="M74.05,95c-0.125,0-0.252-0.005-0.379-0.014c-2.754-0.207-4.818-2.606-4.612-5.36c0.335-4.457,0.788-8.997,1.227-13.387   C71.15,67.567,72.046,58.6,72.046,50s-0.896-17.567-1.761-26.239c-0.438-4.39-0.892-8.93-1.227-13.387   c-0.206-2.753,1.858-5.153,4.612-5.36c2.759-0.208,5.153,1.859,5.36,4.612c0.325,4.334,0.771,8.812,1.204,13.142   c0.89,8.916,1.811,18.135,1.811,27.232s-0.921,18.316-1.811,27.232c-0.433,4.33-0.879,8.808-1.204,13.142   C78.834,93,76.642,95,74.05,95z"/>
  </g>
  <g>
    <path d="M55.093,95.001c-0.476,0-0.959-0.068-1.438-0.212c-2.646-0.793-4.146-3.581-3.353-6.226   c0.64-2.134,1.319-4.303,2.008-6.499c3.334-10.64,6.781-21.641,6.781-32.064c0-10.424-3.447-21.426-6.781-32.065   c-0.688-2.196-1.368-4.364-2.008-6.498c-0.793-2.645,0.707-5.432,3.353-6.226c2.645-0.793,5.433,0.708,6.226,3.353   c0.629,2.095,1.296,4.225,1.972,6.381c3.56,11.357,7.239,23.102,7.239,35.056c0,11.953-3.68,23.697-7.239,35.055   c-0.676,2.156-1.343,4.286-1.972,6.382C59.23,93.603,57.243,95.001,55.093,95.001z"/>
  </g>
  <g>
    <path d="M36.131,95.001c-0.815,0-1.641-0.199-2.405-0.62c-2.419-1.331-3.302-4.371-1.971-6.791c0.778-1.414,1.572-2.831,2.37-4.253   C40.03,72.807,46.137,61.917,46.137,50c0-11.914-6.113-22.817-12.025-33.36c-0.793-1.415-1.583-2.823-2.356-4.23   c-1.331-2.419-0.448-5.46,1.971-6.791c2.419-1.332,5.459-0.449,6.791,1.971c0.761,1.383,1.538,2.768,2.317,4.159   C49.374,23.413,56.137,35.474,56.137,50c0,14.53-6.756,26.578-13.29,38.229c-0.784,1.397-1.565,2.791-2.33,4.182   C39.606,94.064,37.896,95.001,36.131,95.001z"/>
  </g>
  <g>
    <path d="M90,95c-2.762,0-5-2.238-5-5V10c0-2.761,2.238-5,5-5s5,2.239,5,5v80C95,92.762,92.762,95,90,95z"/>
  </g>
</svg>