<?xml version="1.0" encoding="utf-8"?>
<!-- Svg Vector Icons : http://www.onlinewebfonts.com/icon -->
<!DOCTYPE svg PUBLIC "-//W3C//DTD SVG 1.1//EN" "http://www.w3.org/Graphics/SVG/1.1/DTD/svg11.dtd">
<svg version="1.1" xmlns="http://www.w3.org/2000/svg" xmlns:xlink="http://www.w3.org/1999/xlink" x="0px" y="0px" viewBox="0 0 1000 1000" enable-background="new 0 0 1000 1000" xml:space="preserve">
<metadata> Svg Vector Icons : http://www.onlinewebfonts.com/icon </metadata>
<g><path d="M298.2,607.7c24.1,24.2,63.3,24.2,87.4,0l14.6-14.6c24.1-24.1,24.1-63.3,0-87.4L257,362.5c-24.2-24.1-63.3-24.1-87.4,0L155,377.1c-24.1,24.1-24.1,63.3,0,87.4L298.2,607.7z"/><path d="M363.8,435.3l65.5,65.4c22.1-36.2,46.1-67.9,77-98.8c31.4-31.4,65.9-57.8,100.7-78.1l-65.8-65.8L511.9,229l-67-67c-20.3,34.8-46.6,69.3-78.1,100.7c-30.8,30.9-62.6,54.9-98.8,77l66.6,66.6L363.8,435.3z"/><path d="M616.3,289.6c24.1,24.2,63.3,24.2,87.4,0l14.6-14.6c24.1-24.1,24.1-63.3,0-87.4L575,44.4c-24.1-24.1-63.3-24.1-87.4,0L473,59c-24.1,24.1-24.1,63.3,0,87.4L616.3,289.6z"/><path d="M989.1,775.1l-18.3-4.7C941.7,713,779.2,577.4,779.2,577.4c-59.9-54.2-80.3-41.5-80.3-41.5L677,557.8l-22.1,22.1c0,0-12.8,20.4,41.5,80.3c0,0,139,159.1,196.5,188.2l4.8,18.1c0,0,41.3,8,67.4-24.2C997.2,816.2,989.1,775.1,989.1,775.1z"/><path d="M118.5,818.6h351.9c17.1,0,30.9-13.8,30.9-30.9V746c0-17.1-13.8-30.9-30.9-30.9H118.5c-17.1,0-30.9,13.8-30.9,30.9v41.6C87.6,804.7,101.4,818.6,118.5,818.6z"/><path d="M553.2,391.6l-46.1,46.1l136,136l46.1-46.1L553.2,391.6z"/><path d="M573.8,844.4H53.8c-24.2,0-43.8,19.6-43.8,43.9v41.6c0,24.2,19.6,43.8,43.8,43.8h519.9c24.2,0,43.8-19.6,43.8-43.8v-41.6C617.6,864.1,598,844.4,573.8,844.4z"/></g>
</svg>