<?xml version="1.0" encoding="iso-8859-1"?>
<!-- Generator: Adobe Illustrator 17.1.0, SVG Export Plug-In . SVG Version: 6.00 Build 0)  -->
<!DOCTYPE svg PUBLIC "-//W3C//DTD SVG 1.1//EN" "http://www.w3.org/Graphics/SVG/1.1/DTD/svg11.dtd">
<svg version="1.1" id="Capa_1" xmlns="http://www.w3.org/2000/svg" xmlns:xlink="http://www.w3.org/1999/xlink" x="0px" y="0px"
	 viewBox="0 0 573.547 573.547" style="enable-background:new 0 0 573.547 573.547;" xml:space="preserve">
<g>
	<path d="M95.171,264.685c25.439,0,46.136-20.703,46.136-46.149s-20.697-46.149-46.136-46.149
		c-25.446,0-46.147,20.703-46.147,46.149S69.725,264.685,95.171,264.685z"/>
	<path d="M36.626,382.573l12.601-24.155v46.535c0,5.277,4.293,9.571,9.571,9.571h75.428c5.279,0,9.573-4.294,9.573-9.571v-48.769
		l13.767,26.389c3.356,6.437,9.954,10.436,17.22,10.436c0,0,0.001,0,0.001,0c0.467,0,0.936-0.017,1.403-0.051
		c2.643-0.191,5.187-0.917,7.561-2.155c4.596-2.395,7.983-6.439,9.538-11.385c1.555-4.945,1.09-10.201-1.307-14.8L180.2,342.032
		c0.114-0.202,0.235-0.399,0.343-0.606l12.601-24.155v46.535c0,5.277,4.293,9.571,9.571,9.571h75.428
		c5.279,0,9.573-4.294,9.573-9.571v-48.77l13.767,26.39c3.356,6.436,9.954,10.436,17.22,10.436c0,0,0,0,0.001,0
		c0.467,0,0.936-0.017,1.403-0.051c2.643-0.191,5.187-0.917,7.561-2.155c4.596-2.395,7.983-6.439,9.538-11.385
		c1.555-4.945,1.09-10.201-1.307-14.8l-10.532-20.189c0.038-0.07,0.081-0.137,0.118-0.208l12.601-24.155v46.535
		c0,5.277,4.293,9.571,9.571,9.571h75.428c5.279,0,9.573-4.294,9.573-9.571v-48.769l13.767,26.389
		c3.356,6.437,9.954,10.436,17.22,10.436c0,0,0,0,0.001,0c0.467,0,0.936-0.017,1.403-0.051c2.643-0.191,5.187-0.917,7.561-2.155
		c4.596-2.395,7.983-6.439,9.538-11.385c1.555-4.945,1.09-10.201-1.307-14.8l-43.597-83.574
		c-3.357-6.436-9.956-10.436-17.223-10.436c-0.445,0-68.8,0.026-68.9,0.026c-8.095,0-13.217,4.2-16.454,10.409l-31.186,59.782
		l-11.179-21.43c-3.357-6.436-9.956-10.436-17.223-10.436c-0.445,0-68.8,0.026-68.9,0.026c-7.528,0-13.217,4.2-16.454,10.409
		l-31.403,60.197l-9.938-19.05c-3.357-6.436-9.609-10.435-17.223-10.435c-0.445,0-68.8,0.026-68.9,0.026
		c-7.153,0-13.217,4.2-16.454,10.409L2.211,364.618c-2.398,4.598-2.862,9.853-1.308,14.8c1.555,4.945,4.941,8.988,9.537,11.385
		c2.376,1.238,4.919,1.964,7.561,2.155c0.469,0.034,0.937,0.051,1.405,0.051C26.67,393.009,33.269,389.011,36.626,382.573z"/>
	<path d="M239.088,223.538c25.44,0,46.136-20.703,46.136-46.149s-20.697-46.149-46.136-46.149
		c-25.446,0-46.147,20.703-46.147,46.149S213.642,223.538,239.088,223.538z"/>
	<path d="M384.03,185.185c25.439,0,46.136-20.703,46.136-46.149s-20.697-46.149-46.136-46.149
		c-25.446,0-46.147,20.703-46.147,46.149S358.584,185.185,384.03,185.185z"/>
	<path d="M571.131,271.017c-3.025-4.123-8.459-5.913-14.183-4.572l-52.665,12.352c-5.214,1.222-8.994,4.508-10.37,9.017
		c-1.376,4.509-0.077,9.347,3.565,13.272l10.003,10.779l-69.118,60.793c-0.657,0.511-2.553,1.278-3.305,1.363l-116.735,5.598
		c-5.343,0.257-12.34,2.251-17.017,4.851l-125.865,69.984c-1.144,0.636-4.275,1.448-5.585,1.448H41.217
		c-6.837,0-12.38,5.542-12.38,12.38c0,6.837,5.543,12.38,12.38,12.38h128.64c5.535,0,12.778-1.878,17.616-4.567l125.865-69.984
		c1.319-0.733,4.664-1.687,6.171-1.759l116.734-5.598c6.189-0.297,13.761-3.362,18.414-7.455l69.67-61.277l9.447,10.182
		c2.897,3.123,6.556,4.843,10.3,4.843c0.001,0,0.002,0,0.002,0c5.733,0,10.497-3.816,12.432-9.961l16.25-51.598
		C574.216,278.862,573.638,274.435,571.131,271.017z"/>
</g>
<g>
</g>
<g>
</g>
<g>
</g>
<g>
</g>
<g>
</g>
<g>
</g>
<g>
</g>
<g>
</g>
<g>
</g>
<g>
</g>
<g>
</g>
<g>
</g>
<g>
</g>
<g>
</g>
<g>
</g>
</svg>
