<?xml version="1.0" encoding="utf-8"?>
<svg viewBox="0 0 77.257 99.21" xmlns="http://www.w3.org/2000/svg">
  <defs>
    <style>.cls-1{fill:#fff;}.cls-2,.cls-4,.cls-5{fill:none;}.cls-3,.cls-4,.cls-5{stroke:#000;}.cls-3,.cls-4{stroke-miterlimit:10;}.cls-4,.cls-5{stroke-width:0.5px;}</style>
  </defs>
  <title>SouthWest Outline</title>
  <g id="Layer_1" data-name="Layer 1">
    <g id="som_admbnda_adm0_undp_som_admbnda_adm0_undp_polygon" data-name="som admbnda adm0 undp som admbnda adm0 undp polygon">
      <g id="som_admbnda_adm0_undp_som_admbnda_adm0_undp_polygon_1" data-name="som admbnda adm0 undp som admbnda adm0 undp polygon 1">
        <path class="cls-1" d="M9.363,94.937h-.14l.14-.141H9.5v0l-.139.141"/>
        <path class="cls-1" d="M9.78,94.371H9.641l.139-.142v.142"/>
        <path class="cls-1" d="M10.059,93.946H9.92V93.8h.139v-.141H10.2V93.8h-.139v.142"/>
        <path class="cls-1" d="M10.616,93.379h0v0"/>
        <path class="cls-1" d="M10.616,93.238V93.1h.139l-.139.142"/>
        <path class="cls-1" d="M11.173,92.53v.141h-.139v.142H10.9v.142h-.14l.14-.142h.139v-.142l.139-.141.139-.142.14-.141v.141h-.14v.142h-.139"/>
        <path class="cls-1" d="M11.591,92.247h0"/>
        <path class="cls-1" d="M11.73,91.963h0"/>
        <path class="cls-1" d="M11.73,91.963v-.141h.139V91.68h0v.142l-.139.141"/>
        <path class="cls-1" d="M12.287,91.255l-.139.142v-.142l.139-.141v.141"/>
        <path class="cls-1" d="M13.819,89.415H13.68l.139-.142v.142"/>
        <path class="cls-1" d="M20.225,4.735l-.139.142V4.594h.139v.141"/>
        <path class="cls-1" d="M19.251,4.594l.139-.142.139-.142v.142H19.39l-.139.142"/>
        <path class="cls-1" d="M20.086,4.31V4.169h.139l-.139.141"/>
        <path class="cls-1" d="M71.893.77l.139.142.14.141h.418l.139.142h.278l.14.142h.139l.139.141.279.142h.7v.142h.418l.139.141.139-.141h.14v.424l-.14.142v.283h-.139v.142l.139.141v.142l-.139.142h-.139v.141l-.139.142-.14.141v.142H74.4v.142l-.139.141-.14.142v.849h-.139l-.139.284V6.434l.139.142v.142h.557v.141L74.4,7v.141l-.139.425-.14.142V9.833l.14.283V10.4l.139.142v.425h-.279l-.139.141v.567h-.418v.141h-.139V12.1H73.7v-.142h1.253v-.142h-.139v-.141l-.139-.142v-.283l-.14-.142v-.141l.14.141v.142h.139l.139.142H75.1l.14.141h.278v.142h.139v-.142h.279l.139.142v.141h.139l-.139.142v.283h-.139v.142h-.279V12.24l-.139.142h-.278V12.24H75.1V12.1l-.139-.142H74.4l-.418.142h-.418l-.139.141-.278.142h-.14l-.139.141-.278.284v1.132l-.14.142v.566l.14.142v.283h-.14V15.5l-.139.142v.283l-.139.142v.424l-.14.284.14.141-.14.142v.566l-.139.142v.849h.139v.142h.14V18.9l-.14.141v.142l-.139.283-.139.142-.139.141v.142l-.14.141-.139.142H71.2l-.139.283h-.14V20.6l-.139.141v.85l-.139.142-.139.141-.14.142-.139.142-.139.141-.279.283h-.139l-.139.142-.14.142V23l-.139.142h-.139v.566l-.139.142v.425h-.14v.141H68.69v.142l-.139.141v.85l-.139.142-.14.141-.139.142-.139.141-.14.142V26.4h-.139v.141l-.139.142v.283H67.3v.566l-.139.142v.283h-.139l-.279.284-.139.141-.278.142h-.14l-.139.141-.139.142-.14.142-.139.283-.139.141-.279.284-.139-.142v.142h.139l-.139.141v.142H64.93v.849h.139v.142l-.139.142.139.141H64.93v.142l-.139.141v.142h-.14v.283l-.139.142v.141l-.139.284-.139.424h-.14v.142l-.139.283-.139.283-.14.142-.278.283-.139.283-.14.142-.139.142-.139.141V34.9l-.139.283-.14.142-.417.566-.14.283-.139.284-.139.141v.142l-.14.141-.139.142v.142h-.139V37.3l-.139.142-.14.425h-.139v.141l-.139.142V38.3l-.139.142v.283l-.14.425h-.139v.142l-.139.141v.283l-.139.142-.14.283-.139.567v.991l-.139.425-.14.141v.284h-.139l-.278.708-.14.283-.139.283-.139.283-.139.283h-.14v.284l-.139.141h-.139l-.139.425-.279.425-.418.708-.278.425-.14.283-.139.141-.418.708-.139.142-.139.142h-.139v.141l-.14.284-.557.708-.278.424-.14.142h-.139v.142l-.278.283v.141l-.14.142-.139.142-.139.283-.139.141-.14.142-.139.283-.139.425-.139.142v.141l-.279.425v.142l-.139.141-.14.142-.139.283v.142l-.139.141-.139.142v.283l-.14.142h-.139v.283l-.278.283-.279.142v.141l-.139.142-.139.142-.14.141-.139.142L50.725,56l-.14.142-.139.283h-.139l-.139.141-.279.142v.283H49.75v.142l-.279.141-.278.425h-.139l-.14.283L48.5,58.4l-.417.567-.14.141-.139.142-.557.425v.141H47.1l-.139.142-.14.141-.139.284h-.139v.141l-.14.142-.139.141-.139.142-.139.142-.14.141-.278.284-.139.141-.14.142-.139.141-.278.284v.141l-.418.283-.279.284v.141l-.278.283-.14.284h-.139l-.278.424-.279.284-.278.283-.279.425h-.139l-.279.283-.278.141v.142h-.14l-.139.142-.278.141v.142l-.14.141-.278.142-.139.142-.279.141V66.9H40.28l-.14.142v.142L40,67.324h-.139v.142l-.279.141-.139.284-.139.141h-.139v.142h-.14v.142h-.139v.141l-.139.142-.139.141-.14.142-.278.142-.14.283h-.139l-.139.141-.139.142h-.14l-.139.142-.139.141-.279.142H36.8v.141H36.52l-.14.284-.278.141-.279.142h-.139v.141h-.139l-.14.142-.139.142h-.278l-.279.283h-.278l-.14.141-.139.142h-.139L33.734,72H33.6l-.139.142h-.14v.141h-.278l-.279.142-.139.142h-.139v.141l-.139-.141v.141l-.279.142h-.279v.141h-.278v.142h-.139l-.14.142-.278.141-.139.142h-.14l-.139.141h-.139l-.279.284-.418.141-.417.283v.142h-.14v.142H29l-.139.141h-.139l-.14.142h-.139l-.139.142v0l-.139.141-.14.142-.139.141h-.139l-.14.142-.139.142-.139.141-.418.283-.139.142-.279.142v.141l-.278.142-.139.141-.14.142-.278.142-.14.141v.142L25.1,77.8l-.14.142v.141h0v.142h-.278l-.418.283v.142l-.139.141h-.139v.142l-.14.141h-.139l-.139.142v.142h-.139l-.14.141-.278.142-.14.141h-.139v.142h-.139v.142h-.139l-.14.141-.139.142-.278.283h-.14l-.139.142-.139.141-.139.142-.279.283-.279.142v.141l-.139.142H20.5l-.139.142v.141l-.418.425-.139.142h-.14l-.139.141-.418.567-.139.141-.279.283-.139.142-.139.283-.139.142L18,84.458V84.6l-.278.142-.14.283-.139.141-.139.142-.139.142-.279.424-.139.142-.557.566-.14.142-.139.283h-.139v.142l-.279.141-.139.142-.139.142-.139.141-.14.142-.418.566h-.278l-.139.142v.142l-.14.141-.139.142v.283h-.278l-.14.283-.139.142v.283h-.139l.139-.142h-.139v.142h-.139v.142h-.14v.141h-.139v.142h-.139l-.14.141v.142h-.139v.142l-.139.141v.142l-.139.141-.14.142-.139.142v.141h-.139v.142h-.139v.141l-.14.142-.139.142-.139.141-.139.142h-.279v.141l-.139-.141-.14.141H10.2v-.283l.139-.141v-.142l.14-.142h-.14v.142l-.139.142v0h-.139v.141H9.92l-.14-.141.14-.284v-.141H9.78v.566H10.2v.283h.279v.284h-.14V93.1H10.2v.142h-.139v.283l-.139.142-.14.141H9.641l.139-.141-.139-.142V93.1L9.5,92.955H9.363v-.142h-.14v.142H9.5V93.1h.139v.85h0v.283l-.139.142v.141l-.139.142V94.8h-.14l-.139.141v.283l.139-.141v.141H9.084v.142H8.945v0l-.139-.142v-.141l-.14-.142H8.527V94.8H8.248l-.139.141H7.97v.142l-.139.141h-.14v.142h.14V95.22l.139-.283h.139l.139-.141.14.141h.139l.139.142v.141l.14.284-.14.141v.142l-.139.283-.279.283-.139.142v.141l-.139.142-.139.142v.141l-.14.142v.141l-.278.284-.139.283h-.14v.141L7,98.194v.142H6.856v-.284L2.817,92.53V66.475l2.228-2.408h.14l3.76-5.522.278-.425v-.142h.14l.139-.141v-.283l.139-.142.139-.142h.14l.139-.283.139-.141h.139V56.7h1.811l.278-.142h1.393v-.141H14.1l.278-.142.279-.141h.975V56h.278v-.142h.139v-.141h.14l.139-.283h.139l.139-.142.14-.142v-.141l.139-.142v-.142l.139-.141v-.425h.14v-.283l.278-.283.279-.142h.139l.278-.142.418-.283.7-.425.7-.283.278-.141.557-.142.836-.283.975-.283,1.393-.425h.139l1.532.141,2.507.142,2.646.142.139-.142.557-.566,3.2-3.4,6.963-7.363h.14L44.318,37.3l3.343-3.4,1.393-1.416,2.924-3.116H45.015v-.141l-.557-.142h-.14l-.139-.141-.7-.284h-.139l-.836-.283h-.139l-.14-.141H42.09l-.418-.142h-.278l-.139-.142-.418-.141-.418-.142-.279-.142h-.278l-.139-.141h-.279l-.278-.142-.279-.141h-.418v-.142h-.278l-.7-.283h-.139l-.557-.142L36.52,26.4h-.14l-.7-.284-.418-.141-.418-.142h-.139l-.139-.141h-.139l-.418-.142-.836-.283h-.139l-.279-.142H32.62l-.278-.141-.418-.142h-.279l-.139-.142-.557-.141-.279-.142-.557-.141-.278-.142h-.279v-.142h-.139L29,23.852H28.86l-.836-.283-.139-.142h-.279l-.139-.142h-.278l-.14-.141L26.632,23h-.279l-.139-.141-.418-.142h-.279l-.278-.142-.557-.141-.418-.142h-.139l-.139-.141-.14-.142-.557-.567L23.15,21.3l-.139-.142-.418-.425-.279-.283-.417-.425-.279-.283-.139-.141h-.418l-.139-.142h-.279L20.5,19.32h-.139l-.14-.141-.139-.142-.139-.283-.139-.283v-.283h-.14l-.139-.142L19.39,17.9h-.139v-.141h-.279V17.2l-.139-.566v-.142l-.14-.141v-.283l-.557-.284h-.557v-.141L17.44,15.5l-.139-.283v-.283l-.139-.284-.14-.283-.139-.141h-.139l-.279-.284-.418-.424-.139-.142v-.142l-.139-.283-.139-.283-.14-.142V12.1l-.278-.425v-.142l-.139-.141v-.142h-.14l-.139-.142v-.283l-.139-.141v-.142h.139V10.4l.139-.141.14-.142.139-.283.278-.283.14-.142.139-.283.139-.142V8.842h.139V8.7l.279-.283.139-.283.139-.142.14-.142.139-.283,1.81-3.115h.279v.142l.139-.142h-.139V4.31l.139.142v.142l.14.141h.139v.142l.278.141V5.16l.14-.142.139.142.139.142h.139l.14-.142H20.5l-.139.142v.141h-.14v.142h.14v.566H20.5v.283l.139.142h0V6.434l.139.142.14.142v.141L21.061,7v.283l.139.142.14.141.139.142.139.141v.284h.139v.141l.279.284.278.283.14.141.417.425.14.142.418.425.139.141h.278l.14.142.278.283H24.4v.142l.14.141.139.142h.278v.141l.279.142.139.142.139.141h.14l.139.142.139.283h.279l.278.142.418.141.139-.141h.279l.278.141h.836l.139-.141H29v-.142h.836V12.1h.835v-.142h.279v-.142h0v-.141h.278l.14-.142h.139v-.141h.139l.279-.142h.139l.139-.142h.279l.139-.141h.139v-.142l.14-.141.139-.142.278-.283h.975l.14-.142.139-.141h.139l.139-.142h.14l.139-.142V9.55h.278V9.408h.279l.139-.141.139-.142h.14l.278-.142V8.842H36.8l.139.141h.14v.142h0V8.983h.139l.139.142.418.142.139.141h.418V9.55h.557l.279-.142h.557l.139.142H40l.139.141.14.142.139.283h.836l.278-.141.139-.142h.7V9.691h.418l.139-.141h.139V9.408H43.2l.14-.141h.139l.139-.142h.139l.14-.142.139-.141h.139V8.7h.139V8.559H44.6V8.417h.418V8.275h.139V8.134h.279l.139-.142h.278V7.709h.14l.139-.142V7.426l.278-.142.279-.142h.139V7h.14l.139-.142h.278l.14-.141H47.8V6.576h1.254v.142h.139l.139.141L49.471,7h.14l.139.141h.418L50.446,7h2.228l.14-.142L52.953,7V6.859L53.092,7l.14-.142.139-.141h.139V6.576h.139V6.434h.14l.417-.141.14-.142h.139V6.01h.139V5.868h.836l.139-.142.139-.141h1.393l.418.141h.139l.279.142V6.01h.417l.14.141H58.8l.279-.141H59.5l.279-.142H60.2l.139-.142h.557l.279-.141V5.443h1.114V5.3h.139V5.16H62.7l.139-.283.139-.142.139-.141h.7V4.452h.418l.139.142h.7V4.452h.139l.279-.142h.278v0h-.139l.139-.141h.558l.139.141.278-.141h.14l.139-.142h.139l.139-.141h.279V3.744l.139.142V3.744h.139l.14-.142h.139l.139-.141h.14l.278-.142.139-.141h.14l.139-.142h.139l.139-.142.14-.141.139-.142.139-.283.139-.142V2.045l.14-.142V1.62l.139-.142-.139.142v.142h-.14v.283l.14-.425V1.478h.139l.139-.141L70.5,1.2h.139V1.053h.139l.139.142.279-.142h.139l.139-.141h.279V.77h-.139v0h.278"/>
      </g>
    </g>
    <g id="som_admbnda_adm1_undp_som_admbnda_adm1_undp_polygon" data-name="som admbnda adm1 undp som admbnda adm1 undp polygon">
      <g id="som_admbnda_adm1_undp_som_admbnda_adm1_undp_polygon_1" data-name="som admbnda adm1 undp som admbnda adm1 undp polygon 1">
        <path class="cls-1" d="M20.225,4.735l-.139.142V4.594h.139v.141"/>
        <path class="cls-2" d="M19.111,4.452v.142l.14.141h.139v.142l.278.141V5.16l.14-.142.139.142.139.142h.139l.14-.142H20.5l-.139.142v.141h-.14v.142h.14v.566H20.5v.283l.139.142h0V6.434l.139.142.14.142v.141L21.061,7v.283l.139.142.14.141.139.142.139.141v.284h.139v.141l.279.284.278.283.14.141.417.425.14.142.418.425.139.141h.278l.14.142.278.283H24.4v.142l.14.141.139.142h.278v.141l.279.142.139.142.139.141h.14l-.7,1.133-.7,1.133-1.532-.85-.418-.141-.278.283-1.393,1.982-1.114,1.275-.418.849-.139.284V17.2l-.139-.566v-.142l-.14-.141v-.283l-.557-.284h-.557v-.141L17.44,15.5l-.139-.283v-.283l-.139-.284-.14-.283-.139-.141h-.139l-.279-.284-.418-.424-.139-.142v-.142l-.139-.283-.139-.283-.14-.142V12.1l-.278-.425v-.142l-.139-.141v-.142h-.14l-.139-.142v-.283l-.139-.141v-.142h.139V10.4l.139-.141.14-.142.139-.283.278-.283.14-.142.139-.283.139-.142V8.842h.139V8.7l.279-.283.139-.283.139-.142.14-.142.139-.283,1.81-3.115h.279v.142l.139-.142h-.139V4.31l.139.142"/>
        <path class="cls-1" d="M19.251,4.594l.139-.142.139-.142v.142H19.39l-.139.142"/>
        <path class="cls-1" d="M20.086,4.31V4.169h.139l-.139.141"/>
      </g>
      <g id="som_admbnda_adm1_undp_som_admbnda_adm1_undp_polygon_2" data-name="som admbnda adm1 undp som admbnda adm1 undp polygon 2">
        <path class="cls-3" d="M29.278,57.412l.278,1.558L29.417,60.1v3.116l-.836.141-.278-.141H26.91l-.557-.283-.418-.284.279-.283V61.094l-.279-.284-.7-1.84-1.671-.425H23.15l-.557.283h-.139l-.279.142-.418.991-.7.849-1.253.284-2.089-.708.139-1.416-.279-.567-1.392-2.549-.14-.141h.14l.139-.283h.139l.139-.142.14-.142v-.141l.139-.142v-.142l.139-.141v-.425h.14v-.283l.278-.283.279-.142h.139l.278-.142.418-.283.7-.425.7-.283.278-.141.557-.142.836-.283.975-.283,1.393-.425h.139l1.532.141,2.507.142v.425l.557,3.115v.142l.557,2.407"/>
      </g>
      <g id="som_admbnda_adm1_undp_som_admbnda_adm1_undp_polygon_3" data-name="som admbnda adm1 undp som admbnda adm1 undp polygon 3">
        <path class="cls-1" d="M35.405,71.006l-.139.142h-.278l-.279.283h-.278l-.14.141-.139.142h-.139L33.734,72H33.6l-.139.142h-.14v.141h-.278l-.279.142h.14l.139-.283L33.177,72v-.141h.139v-.142h.14v-.142H33.6v-.141l.139-.283h.279l.278-.142h1.114"/>
      </g>
      <g id="som_admbnda_adm1_undp_som_admbnda_adm1_undp_polygon_4" data-name="som admbnda adm1 undp som admbnda adm1 undp polygon 4">
        <path class="cls-2" d="M71.893.77l.139.142.14.141h.418l.139.142h.278l.14.142h.139l.139.141.279.142h.7v.142h.418l.139.141.139-.141h.14v.424l-.14.142v.283h-.139v.142l.139.141v.142l-.139.142h-.139v.141l-.139.142-.14.141v.142H74.4v.142l-.139.141-.14.142v.849h-.139l-.139.284V6.434l.139.142v.142h.557v.141L74.4,7v.141l-.139.425-.14.142V9.833l.14.283V10.4l.139.142v.425h-.279l-.139.141v.567h-.418v.141h-.139V12.1H73.7v-.142h1.253v-.142h-.139v-.141l-.139-.142v-.283l-.14-.142v-.141l.14.141v.142h.139l.139.142H75.1l.14.141h.278v.142h.139v-.142h.279l.139.142v.141h.139l-.139.142v.283h-.139v.142h-.279V12.24l-.139.142h-.278V12.24H75.1V12.1l-.139-.142H74.4l-.418.142h-.418l-.139.141-.278.142h-.14l-.139.141-.278.284v1.132l-.14.142v.566l.14.142v.283h-.14V15.5l-.139.142v.283l-.139.142v.424l-.14.284.14.141-.14.142v.566l-.139.142v.849h.139v.142h.14V18.9l-.14.141v.142l-.139.283-.139.142-.139.141v.142l-.14.141-.139.142H71.2l-.139.283h-.14V20.6l-.139.141v.85l-.139.142-.139.141-.14.142-.139.142-.139.141-.279.283h-.139l-.139.142-.14.142V23l-.139.142h-.139v.566l-.139.142v.425h-.14v.141H68.69v.142l-.139.141v.85l-.139.142-.14.141-.139.142-.139.141-.14.142V26.4h-.139v.141l-.139.142v.283h-.139l-.836-.85-.836-.141-.278.425-.418.566-.139-.708v-.142h-.139v-.141l-.14-.425-.7-.425H62.423l-.418-.283h-.139V24.7h-.279V24.56l-.278-.142H61.17l-.279-.283-.418-.283-.557-.991-3.9.849.687-2.549.768-2.939L56.7,14.647l.768-2.265-.15-3.54L56.7,7.317l.427-1.732,1.532.566H58.8l.279-.141H59.5l.279-.142H60.2l.139-.142h.557l.279-.141V5.443h1.114V5.3h.139V5.16H62.7l.139-.283.139-.142.139-.141h.7V4.452h.418l.139.142h.7V4.452h.139l.279-.142h.278v0h-.139l.139-.141h.558l.139.141.278-.141h.14l.139-.142h.139l.139-.141h.279V3.744l.139.142V3.744h.139l.14-.142h.139l.139-.141h.14l.278-.142.139-.141h.14l.139-.142h.139l.139-.142.14-.141.139-.142.139-.283.139-.142V2.045l.14-.142V1.62l.139-.142-.139.142v.142h-.14v.283l.14-.425V1.478h.139l.139-.141L70.5,1.2h.139V1.053h.139l.139.142.279-.142h.139l.139-.141h.279V.77h-.139v0h.278"/>
      </g>
      <g id="som_admbnda_adm1_undp_som_admbnda_adm1_undp_polygon_5" data-name="som admbnda adm1 undp som admbnda adm1 undp polygon 5">
        <path class="cls-3" d="M25.935,60.81l.279.284v1.274l-.279.283.418.284.557.283H28.3l.278.141.14.425v.142l.139.849-.139.425v.425h-.14v.425l-.139.425.139.424v.567l-.139.85-.139.566.139.425V70.3l.139.283v.142l-1.392.566-3.9,1.841H23.15l-2.089.85-1.95.991L16.744,76.1l-.14-.142-.417-.283-.279-.283h-.139v-.142H15.63v-.141h-.14v-.142h-.139v-.142h-.139v-.141h-.139v-.142h-.14V74.4h-.139v-.141h-.139v-.142h-.14V73.98h-.139v-.142h-.139V73.7H14.1v-.141h-.14l-.139-.142-.278-.283-.418-.283-.418-.142.7-4.531.14-.142.139-.991V66.9l.418-2.265h.557l1.81.141,1.114-.141V63.359l.14-2.973,2.089.708,1.253-.284.7-.849.418-.991.279-.142h.139l.557-.283h.418l1.671.425.7,1.84"/>
      </g>
      <g id="som_admbnda_adm1_undp_som_admbnda_adm1_undp_polygon_6" data-name="som admbnda adm1 undp som admbnda adm1 undp polygon 6">
        <path class="cls-2" d="M49.332,49.482l-.7,4.956.557.283,1.81.85-.139.142L50.725,56l-.14.142-.139.283h-.139l-.139.141-.279.142v.283H49.75v.142l-.279.141-.278.425h-.139l-.14.283L48.5,58.4l-.417.567-.14.141-.139.142-.557.425v.141H47.1l-.139.142-.14.141-.139.284h-.139v.141l-.14.142-.139.141-.139.142-.139.142-.14.141-.278.284-.139.141-.14.142-4.456-3.116V56.279l-1.671-1.416L38.887,52.6l.7-1.416.14-.849V50.19l-1.393.425-2.368-.566-.278-.567-.975-2.124,6.963-7.363h.14l7.52,1.7-1.81,3.682.835,1.274.975,2.691v.141"/>
      </g>
      <g id="som_admbnda_adm1_undp_som_admbnda_adm1_undp_polygon_7" data-name="som admbnda adm1 undp som admbnda adm1 undp polygon 7">
        <path class="cls-2" d="M16.187,55.854,17.579,58.4l.279.567-.139,1.416-.14,2.973v1.275l-1.114.141-1.81-.141H14.1L13.68,66.9v.142l-.139.991-.14.142-.7,4.531H7.274L5.742,77.52,2.817,77.8V66.475l2.228-2.408h.14l3.76-5.522.278-.425v-.142h.14l.139-.141v-.283l.139-.142.139-.142h.14l.139-.283.139-.141h.139V56.7h1.811l.278-.142h1.393v-.141H14.1l.278-.142.279-.141h.975V56h.278v-.142h.139v-.141l.14.141"/>
      </g>
      <g id="som_admbnda_adm1_undp_som_admbnda_adm1_undp_polygon_8" data-name="som admbnda adm1 undp som admbnda adm1 undp polygon 8">
        <path class="cls-2" d="M35.962,50.049l2.368.566,1.393-.425v.142l-.14.849-.7,1.416.279,2.266,1.671,1.416v2.407l-1.254.708-.835,1.7-.279.283-.139.142-.139.283h-.14v.425h-.139v.141l-.139.567-.139.424-4.6.284h-.975l-.557-.284-1.393-.141h-.7V60.1l.139-1.132-.278-1.558-.557-2.407v-.142l-.557-3.115v-.425l2.646.142.139-.142.557-.566,3.2-3.4.975,2.124.278.567"/>
      </g>
      <g id="som_admbnda_adm1_undp_som_admbnda_adm1_undp_polygon_9" data-name="som admbnda adm1 undp som admbnda adm1 undp polygon 9">
        <path class="cls-2" d="M16.744,76.1l1.949,2.973.14.142.418.708.139.142,1.253,1.7H20.5l-.139.142v.141l-.418.425-.139.142h-.14l-.139.141-.418.567-.139.141-.279.283-.139.142-.139.283-.139.142H14.933l-.557-2.832-.139-.284L12.844,77.1l-.7.142H10.9l-5.153.283,1.532-4.815h5.431l.418.142.418.283.278.283.139.142h.14V73.7h.139v.142h.139v.142h.139v.141h.14v.142h.139V74.4h.139v.142h.14v.142h.139v.141h.139v.142h.139v.142h.14v.141h.139V75.4h.139l.279.283.417.283.14.142"/>
      </g>
      <g id="som_admbnda_adm1_undp_som_admbnda_adm1_undp_polygon_10" data-name="som admbnda adm1 undp som admbnda adm1 undp polygon 10">
        <path class="cls-1" d="M9.363,94.937h-.14l.14-.141H9.5v0l-.139.141"/>
        <path class="cls-1" d="M9.78,94.371H9.641l.139-.142v.142"/>
        <path class="cls-1" d="M10.059,93.946H9.92V93.8h.139v-.141H10.2V93.8h-.139v.142"/>
        <path class="cls-1" d="M10.616,93.379h0v0"/>
        <path class="cls-1" d="M10.616,93.238V93.1h.139l-.139.142"/>
        <path class="cls-1" d="M11.173,92.53v.141h-.139v.142H10.9v.142h-.14l.14-.142h.139v-.142l.139-.141.139-.142.14-.141v.141h-.14v.142h-.139"/>
        <path class="cls-1" d="M11.591,92.247h0"/>
        <path class="cls-1" d="M11.73,91.963h0"/>
        <path class="cls-1" d="M11.73,91.963v-.141h.139V91.68h0v.142l-.139.141"/>
        <path class="cls-1" d="M12.287,91.255l-.139.142v-.142l.139-.141v.141"/>
        <path class="cls-1" d="M13.819,89.415H13.68l.139-.142v.142"/>
        <path class="cls-2" d="M14.933,84.317h3.343L18,84.458V84.6l-.278.142-.14.283-.139.141-.139.142-.139.142-.279.424-.139.142-.557.566-.14.142-.139.283h-.139v.142l-.279.141-.139.142-.139.142-.139.141-.14.142-.418.566h-.278l-.139.142v.142l-.14.141-.139.142v.283h-.278l-.14.283-.139.142v.283h-.139l.139-.142h-.139v.142h-.139v.142h-.14v.141h-.139v.142h-.139l-.14.141v.142h-.139v.142l-.139.141v.142l-.139.141-.14.142-.139.142v.141h-.139v.142h-.139v.141l-.14.142-.139.142-.139.141-.139.142h-.279v.141l-.139-.141-.14.141H10.2v-.283l.139-.141v-.142l.14-.142h-.14v.142l-.139.142v0h-.139v.141H9.92l-.14-.141.14-.284v-.141H9.78v.566H10.2v.283h.279v.284h-.14V93.1H10.2v.142h-.139v.283l-.139.142-.14.141H9.641l.139-.141-.139-.142V93.1L9.5,92.955H9.363v-.142h-.14v.142H9.5V93.1h.139v.85h0v.283l-.139.142v.141l-.139.142V94.8h-.14l-.139.141v.283l.139-.141v.141H9.084v.142H8.945v0l-.139-.142v-.141l-.14-.142H8.527V94.8H8.248l-.139.141H7.97v.142l-.139.141h-.14v.142h.14V95.22l.139-.283h.139l.139-.141.14.141h.139l.139.142v.141l.14.284-.14.141v.142l-.139.283-.279.283-.139.142v.141l-.139.142-.139.142v.141l-.14.142v.141l-.278.284-.139.283h-.14v.141L7,98.194v.142H6.856v-.284L2.817,92.53V77.8l2.925-.283,5.153-.283h1.253l.7-.142L14.237,81.2l.139.284.557,2.832"/>
      </g>
      <g id="som_admbnda_adm1_undp_som_admbnda_adm1_undp_polygon_11" data-name="som admbnda adm1 undp som admbnda adm1 undp polygon 11">
        <path class="cls-2" d="M62.7,32.348l1.114,1.274-.14.142-.278.283-.139.283-.14.142-.139.142-.139.141V34.9l-.139.283-.14.142-.417.566-.14.283-.139.284-.139.141v.142l-.14.141-.139.142v.142h-.139V37.3l-.139.142-.14.425h-.139v.141l-.139.142V38.3l-.139.142v.283l-.14.425h-.139v.142l-.139.141v.283l-.139.142-.14.283-.139.567v.991l-.139.425-.14.141v.284h-.139l-.278.708-.14.283-.139.283-.139.283-.139.283h-.14v.284l-.139.141h-.139l-.139.425-.279.425-.418.708-.278.425-.14.283-.139.141-.418.708-.139.142-.139.142h-.139v.141l-.14.284-.557.708-.278.424-.14.142h-.139v.142l-.278.283v.141l-.14.142-.139.142-.139.283-.139.141-.14.142-.139.283-.139.425-.139.142v.141l-.279.425v.142l-.139.141-.14.142-.139.283v.142l-.139.141-.139.142v.283l-.14.142h-.139v.283l-.278.283-.279.142v.141l-.139.142-.139.142-.14.141-1.81-.85-.557-.283.7-4.956v-.141l-.975-2.691-.835-1.274,1.81-3.682-7.52-1.7L44.318,37.3l3.343-3.4,1.393-1.416,6.545.991h.279l3.481-2.124H59.5l.975.141.557.284,1.254.566H62.7"/>
      </g>
      <g id="som_admbnda_adm1_undp_som_admbnda_adm1_undp_polygon_12" data-name="som admbnda adm1 undp som admbnda adm1 undp polygon 12">
        <path class="cls-2" d="M59.916,22.861l.557.991.418.283.279.283h.139l.278.142V24.7h.279v.142h.139l.418.283h1.532l.7.425.14.425v.141h.139v.142l.139.708.418-.566.278-.425.836.141.836.85H67.3v.566l-.139.142v.283h-.139l-.279.284-.139.141-.278.142h-.14l-.139.141-.139.142-.14.142-.139.283-.139.141-.279.284-.139-.142v.142h.139l-.139.141v.142H64.93v.849h.139v.142l-.139.142.139.141H64.93v.142l-.139.141v.142h-.14v.283l-.139.142v.141l-.139.284-.139.424h-.14v.142l-.139.283-.139.283L62.7,32.348h-.418l-1.254-.566-.557-.284-.975-.141h-.139l-3.481,2.124H55.6l-6.545-.991,2.924-3.116H51.56l.14-.141,1.392-1.416-.557-.284,3.482-3.823H57.27l2.507-2.549.139,1.275v.425"/>
      </g>
      <g id="som_admbnda_adm1_undp_som_admbnda_adm1_undp_polygon_13" data-name="som admbnda adm1 undp som admbnda adm1 undp polygon 13">
        <path class="cls-2" d="M57.131,5.585l.418.141h.139l.279.142V6.01h.417l.14.141h.139L58.8,7l.418,1.558.139.849.139,1.558v1.557l.14,5.523-3.482.283h-.139l-3.343.283h-.139l-4.039.142-2.646.283H44.458l-.557.142-.279-.283v-.142h-.139l-.139-.142H43.2v-.141h-.139v-.142h-.139v-.141h-.279v-.142h-.139V17.9h-.139v-.141h-.14v-.142h-.278V17.48h-.139v-.142h-.14V17.2h-.139v-.141h-.278v-.142h-.14v-.141h-.139V16.63h-.139v-.142h-.279v-.141h-.139V16.2H40.28v-.141h-.14v-.142h-.278V15.78h-.139v-.141h-.14V15.5h-.139l-.139-.141h-.139v-.142h-.14v-.142h-.139v-.141h-.139l-.139-.142h-.14v-.142H38.33l-.139-.283.139-4.956V9.55h.557l.279-.142h.557l.139.142H40l.139.141.14.142.139.283h.836l.278-.141.139-.142h.7V9.691h.418l.139-.141h.139V9.408H43.2l.14-.141h.139l.139-.142h.139l.14-.142.139-.141h.139V8.7h.139V8.559H44.6V8.417h.418V8.275h.139V8.134h.279l.139-.142h.278V7.709h.14l.139-.142V7.426l.278-.142.279-.142h.139V7h.14l.139-.142h.278l.14-.141H47.8V6.576h1.254v.142h.139l.139.141L49.471,7h.14l.139.141h.418L50.446,7h2.228l.14-.142L52.953,7V6.859L53.092,7l.14-.142.139-.141h.139V6.576h.139V6.434h.14l.417-.141.14-.142h.139V6.01h.139V5.868h.836l.139-.142.139-.141h1.393"/>
      </g>
      <g id="som_admbnda_adm1_undp_som_admbnda_adm1_undp_polygon_14" data-name="som admbnda adm1 undp som admbnda adm1 undp polygon 14">
        <path class="cls-2" d="M43.761,63.643h-.139l-.278.424-.279.284-.278.283-.279.425h-.139l-.279.283-.278.141v.142h-.14l-.139.142-.278.141v.142l-.14.141-.278.142-.139.142-.279.141V66.9H40.28l-.14.142v.142L40,67.324h-.139v.142l-.279.141-.139.284-.139.141h-.139v.142h-.14v.142h-.139v.141l-.139.142-.139.141-.14.142-.278.142-.14.283h-.139l-.139.141-.139.142h-.14l-.139.142-.139.141-.279.142H36.8v.141H36.52l-.14.284-.278.141-.279.142h-.139v.141h-.139l-.14.142H34.291l-.278.142h-.279l-.418-.142v-.425l.14-2.974v-.424l-.14-.142-.139-.283-.7-1.133h-.139v-.142H32.2V65.2h-.139l-.279-.425v-.283l-.139-.425-.139-.708.557.284h.975l4.6-.284.139-.424.139-.567v-.141h.139V61.8h.14l.139-.283.139-.142.279-.283.835-1.7,1.254-.708L45.293,61.8l-.139.141-.278.284v.141l-.418.283-.279.284v.141l-.278.283-.14.284"/>
      </g>
      <g id="som_admbnda_adm1_undp_som_admbnda_adm1_undp_polygon_15" data-name="som admbnda adm1 undp som admbnda adm1 undp polygon 15">
        <path class="cls-3" d="M 32.481 72.564 L 32.481 72.511 L 32.342 72.564 L 32.225 72.161 L 32.063 72.536 L 31.784 72.847 L 31.784 72.988 L 31.506 72.988 L 31.506 73.13 L 31.367 73.13 L 31.227 73.272 L 30.949 73.413 L 30.81 73.555 L 30.67 73.555 L 30.531 73.696 L 30.392 73.696 L 30.113 73.98 L 29.695 74.121 L 29.278 74.404 L 29.278 74.546 L 29.138 74.546 L 29.138 74.688 L 29 74.688 L 28.861 74.829 L 28.722 74.829 L 28.582 74.971 L 28.443 74.971 L 28.304 75.113 L 28.165 75.254 L 28.025 75.396 L 27.886 75.537 L 27.747 75.537 L 27.607 75.679 L 27.468 75.821 L 27.329 75.962 L 26.911 76.245 L 26.772 76.387 L 26.493 76.529 L 26.493 76.67 L 26.215 76.812 L 26.076 76.953 L 25.936 77.095 L 25.658 77.237 L 25.518 77.378 L 25.518 77.52 L 25.1 77.8 L 24.96 77.942 L 24.96 78.083 L 24.96 78.225 L 24.682 78.225 L 24.264 78.508 L 24.264 78.65 L 24.125 78.791 L 23.986 78.791 L 23.986 78.933 L 23.846 79.074 L 23.707 79.074 L 23.568 79.216 L 23.568 79.358 L 23.429 79.358 L 23.289 79.499 L 23.011 79.641 L 22.871 79.782 L 22.732 79.782 L 22.732 79.924 L 22.593 79.924 L 22.593 80.066 L 22.454 80.066 L 22.314 80.207 L 22.175 80.349 L 21.897 80.632 L 21.757 80.632 L 21.618 80.774 L 21.479 80.915 L 21.34 81.057 L 21.061 81.34 L 20.782 81.482 L 20.665 81.468 L 19.244 82.154 L 19.39 80.065 L 19.251 79.923 L 18.833 79.215 L 18.693 79.073 L 16.744 76.1 L 19.111 74.967 L 21.061 73.976 L 23.15 73.126 L 23.289 73.126 L 27.189 71.285 L 28.581 70.719 L 28.581 70.577 L 28.442 70.294 L 28.442 69.303 L 28.303 68.878 L 28.442 68.312 L 28.581 67.462 L 28.581 66.9 L 28.442 66.476 L 28.581 66.051 L 28.581 65.626 L 28.721 65.626 L 28.721 65.2 L 28.86 64.775 L 28.721 63.926 L 28.721 63.784 L 28.581 63.359 L 29.417 63.218 L 30.117 63.218 L 31.51 63.359 L 31.649 64.067 L 31.788 64.492 L 31.788 64.775 L 32.067 65.2 L 32.2 65.2 L 32.2 65.483 L 32.34 65.483 L 32.34 65.625 L 32.479 65.625 L 33.179 66.758 L 33.318 67.041 L 33.458 67.183 L 33.458 67.607 L 33.318 70.581 L 33.318 71.006 L 33.736 71.148 L 33.597 71.431 L 33.597 71.572 L 33.458 71.572 L 33.458 71.714 L 33.318 71.714 L 33.318 71.856 L 33.179 71.856 L 33.179 72 L 33.04 72.142 L 32.901 72.425 L 32.761 72.425 L 32.7 72.023 L 32.288 72.179"/>
      </g>
      <g id="som_admbnda_adm1_undp_som_admbnda_adm1_undp_polygon_16" data-name="som admbnda adm1 undp som admbnda adm1 undp polygon 16">
        <path class="cls-2" d="M43.622,18.9l.279.283.557-.142H45.85l2.646-.283,4.039-.142h.139l3.343-.283h.139l3.482-.283.139,3.115L57.27,23.71H56.017L51.56,29.374l1.532-1.557L51.7,29.233l-.14.141H45.154l.7-4.106-.7-1.275-.557-.141V23.71l-5.153-.283.139-1.274-.417-3.116-.836-4.39h.139v.142h.14l.139.142h.139v.141h.139v.142h.14v.142h.139l.139.141h.139v.142h.14v.141h.139v.142h.278v.142h.14V16.2h.139v.142h.139v.141h.279v.142h.139v.142h.139v.141h.14v.142h.278V17.2h.139v.142h.14v.142h.139v.141h.278v.142h.14V17.9h.139v.142h.139v.142h.279v.141h.139v.142H43.2v.141h.14l.139.142h.139V18.9"/>
      </g>
      <g id="som_admbnda_adm1_undp_som_admbnda_adm1_undp_polygon_17" data-name="som admbnda adm1 undp som admbnda adm1 undp polygon 17">
        <path class="cls-2" d="M45.154,29.374h-.139v-.141l-.557-.142h-.14l-.139-.141-.7-.284h-.139l-.836-.283h-.139l-.14-.141H42.09l-.418-.142h-.278l-.139-.142-.418-.141-.418-.142-.279-.142h-.278l-.139-.141h-.279l-.278-.142-.279-.141h-.418v-.142h-.278l-.7-.283h-.139l-.557-.142L36.52,26.4h-.14l-.7-.284-.418-.141-.418-.142h-.139l-.139-.141h-.139l-.418-.142-.836-.283h-.139l-.279-.142H32.62l-.278-.141-.418-.142h-.279l-.139-.142-.557-.141-.279-.142-.557-.141-.278-.142h-.279v-.142h-.139L29,23.852H28.86V19.887l.975-3.965.278-.283.14-.283L31.645,13.8l5.71.425.836.141.139.283.836,4.39.417,3.116-.139,1.274,5.153.283v.142l.557.141.7,1.275-.7,4.106"/>
      </g>
      <g id="som_admbnda_adm1_undp_som_admbnda_adm1_undp_polygon_18" data-name="som admbnda adm1 undp som admbnda adm1 undp polygon 18">
        <path class="cls-2" d="M37.077,9.125h0V8.983h.139l.139.142.418.142.139.141h.418l-.139,4.956-.836-.141-5.71-.425-1.392,1.558-.14.283-.278.283-.975,3.965v3.965l-.836-.283-.139-.142h-.279l-.139-.142h-.278l-.14-.141L26.632,23h-.279l-.139-.141-.418-.142h-.279l-.278-.142-.557-.141-.418-.142h-.139l-.139-.141-.14-.142-.557-.567L23.15,21.3l-.139-.142-.418-.425-.279-.283-.417-.425-.279-.283-.139-.141h-.418l-.139-.142h-.279L20.5,19.32h-.139l-.14-.141-.139-.142-.139-.283-.139-.283v-.283h-.14l-.139-.142L19.39,17.9h-.139v-.141h-.279V17.48l.139-.284.418-.849,1.114-1.275,1.393-1.982.278-.283.418.141,1.532.85.7-1.133.7-1.133.139.142.139.283h.279l.278.142.418.141.139-.141h.279l.278.141h.836l.139-.141H29v-.142h.836V12.1h.835v-.142h.279v-.142h0v-.141h.278l.14-.142h.139v-.141h.139l.279-.142h.139l.139-.142h.279l.139-.141h.139v-.142l.14-.141.139-.142.278-.283h.975l.14-.142.139-.141h.139l.139-.142h.14l.139-.142V9.55h.278V9.408h.279l.139-.141.139-.142h.14l.278-.142V8.842H36.8l.139.141h.14v.142"/>
      </g>
      <g id="qgisviewbox">
        <path class="cls-2" d="M0,99.21H77.242V0H0V99.21"/>
      </g>
    </g>
    <g id="qgisviewbox-2" data-name="qgisviewbox">
      <path class="cls-2" d="M1.567,98.477h75.69V0H1.567V98.477"/>
    </g>
  </g>
  <g id="country-outline">
    <g id="som_admbnda_adm0_undp_som_admbnda_adm0_undp_polygon-2" data-name="som admbnda adm0 undp som admbnda adm0 undp polygon">
      <g id="som_admbnda_adm0_undp_som_admbnda_adm0_undp_polygon_1-2" data-name="som admbnda adm0 undp som admbnda adm0 undp polygon 1">
        <path class="cls-4" d="M8.935,94.291H8.8l.14-.14h.141v0l-.141.14"/>
        <path class="cls-4" d="M9.357,93.729H9.216l.141-.141v.141"/>
        <path class="cls-4" d="M9.638,93.307H9.5v-.14h.14v-.141h.141v.141H9.638v.14"/>
        <path class="cls-4" d="M10.2,92.745h0v0"/>
        <path class="cls-4" d="M10.2,92.605v-.141h.141l-.141.141"/>
        <path class="cls-4" d="M10.763,91.9v.14h-.141v.141h-.141v.14h-.14l.14-.14h.141v-.141l.141-.14.14-.141.141-.14v.14H10.9V91.9h-.14"/>
        <path class="cls-4" d="M11.184,91.621h0"/>
        <path class="cls-4" d="M11.325,91.34h0"/>
        <path class="cls-4" d="M11.325,91.34V91.2h.14v-.141h0V91.2l-.14.141"/>
        <path class="cls-4" d="M11.887,90.637l-.141.14v-.14l.141-.141v.141"/>
        <path class="cls-4" d="M13.433,88.81h-.141l.141-.141v.141"/>
        <path class="cls-4" d="M19.9,4.76l-.14.14V4.619h.14V4.76"/>
        <path class="cls-4" d="M18.915,4.619l.14-.14.141-.141v.141h-.141l-.14.14"/>
        <path class="cls-4" d="M19.758,4.338V4.2h.14l-.14.141"/>
        <path class="cls-5" d="M72.043.824l.141.141.14.14h.422l.14.141h.281l.141.14h.141l.14.141.281.141h.7v.14H75l.14.141.141-.141h.14V2.23l-.14.14v.281h-.141v.141l.141.141v.14l-.141.141H75v.14l-.141.141-.14.14v.141h-.141v.14l-.141.141-.14.14v.844h-.141l-.14.281V6.446l.14.141v.14h.563v.141l-.141.141v.14l-.141.422-.14.14V9.82l.14.281v.281l.141.14v.422h-.281l-.141.141v.562H73.73v.14h-.141v.281h.281v-.14h1.265v-.141H75v-.14l-.141-.141v-.281l-.14-.14v-.141l.14.141v.14H75l.14.141h.141l.14.14H75.7v.141h.141v-.141h.281l.141.141v.14h.14l-.14.141v.281h-.141v.14h-.281v-.14l-.141.14h-.281v-.14h-.14v-.141l-.141-.14h-.562l-.422.14H73.73l-.141.141-.281.14h-.141l-.14.141-.281.281V13.9l-.141.14V14.6l.141.141v.281h-.141v.422l-.14.14v.281L72.324,16v.421l-.14.282.14.14-.14.141v.562l-.141.14v.844h.141v.14h.14v.141l-.14.14V19.1l-.141.281-.14.141-.141.14V19.8l-.141.14-.14.141H71.34l-.14.281h-.141v.14l-.14.141v.843l-.141.141-.14.14-.141.141-.141.141-.14.14-.281.281h-.141l-.14.141-.141.14v.141l-.14.14h-.141v.563l-.141.14v.422h-.14v.14H68.81v.141l-.14.14v.844l-.141.14-.14.141-.141.14-.14.141-.141.141v.14h-.14v.141l-.141.14v.281h-.281v.563l-.141.14v.281h-.14l-.281.281-.141.141-.281.14H66.28l-.14.141-.141.14-.14.141-.141.281-.14.141L65.3,29.5l-.141-.141V29.5H65.3l-.141.14v.141h-.141v.843h.141v.141l-.141.14.141.141h-.141v.14l-.14.141v.141h-.141v.281l-.14.14v.141l-.141.281-.14.422h-.141v.14l-.14.281-.141.281-.14.141-.282.281-.14.281-.141.141-.14.14-.141.141v.14l-.14.281-.141.141-.422.562-.14.281-.141.281-.14.141v.14l-.141.141-.14.141v.14h-.141v.141l-.14.14-.141.422h-.141v.14l-.14.141v.14l-.141.141v.281l-.14.422h-.141v.14l-.14.141v.281l-.141.141-.14.281-.141.562v.984l-.14.421-.141.141v.281h-.141l-.281.7-.14.281-.141.281-.14.281-.141.281h-.14V44.4l-.141.141h-.141l-.14.422-.281.421-.422.7L57,46.5l-.141.281-.14.14-.422.7-.14.141-.141.14h-.14v.141l-.141.281-.562.7-.281.421-.141.141h-.14v.14l-.281.281v.141l-.141.14-.141.141-.14.281-.141.141-.14.14-.141.281-.14.422-.141.141v.14l-.281.422v.14l-.141.141-.14.14-.141.282v.14l-.14.141-.141.14v.281l-.14.141h-.141v.281l-.281.281-.281.141v.14l-.141.141-.14.14-.141.141-.14.14-.141.281-.14.141-.141.281h-.14l-.141.141-.281.14v.281H49.7v.141l-.281.14-.281.422h-.14l-.141.281-.422.422-.421.562-.141.141-.14.14-.563.422v.14h-.14l-.141.141-.14.14L46.6,60h-.14v.14l-.141.141-.14.14-.141.141-.141.14-.14.141-.281.281-.141.141-.14.14-.141.141-.281.281v.14l-.422.281-.281.281v.141l-.281.281-.14.281h-.141l-.281.422-.281.281-.281.281-.281.422h-.141l-.281.281-.281.14V65.2h-.141l-.14.141-.281.14v.141l-.141.14L40.7,65.9l-.141.14-.281.141v.281h-.14L40,66.6v.141l-.14.141h-.141v.14l-.281.141-.14.281-.141.14h-.141v.141h-.14v.14h-.141v.141l-.14.141-.141.14-.14.141-.281.14-.141.281h-.141l-.14.141-.141.14h-.14l-.141.141-.14.141-.281.14h-.141v.141h-.281l-.141.281-.281.14-.281.141H35.5v.14h-.141l-.14.141-.141.14H34.8l-.281.282h-.281l-.141.14-.14.141h-.141l-.281.281h-.141l-.14.14H33.11V71.8h-.281l-.281.14-.141.141h-.14v.141l-.141-.141v.141l-.281.14h-.281v.141h-.281v.14h-.14L31,72.787l-.281.14-.141.141h-.14l-.141.14h-.14l-.281.282-.422.14-.422.281v.141h-.14v.14h-.141l-.14.141h-.141l-.141.14h-.14l-.141.141v0l-.14.14-.141.141-.14.141h-.141l-.14.14-.141.141-.14.14-.422.281-.141.141-.281.14v.141l-.281.141-.14.14-.141.141-.281.14-.141.141V77l-.421.281-.141.141v.141h0v.14H24.4l-.422.281v.141l-.14.14h-.141v.141l-.14.14h-.141l-.14.141v.14h-.141l-.14.141-.282.141-.14.14h-.141v.141h-.14v.14h-.141l-.14.141-.141.14-.281.281h-.141l-.14.141-.141.141-.14.14-.281.281-.281.141v.14l-.141.141h-.141l-.14.14V81.5l-.422.422-.14.14h-.141l-.14.141-.422.562-.141.14-.281.282-.14.14-.141.281-.14.141-.281.14v.141l-.282.14-.14.282-.141.14-.14.141-.141.14-.281.422-.14.14L15.822,86l-.14.14-.141.281H15.4v.141l-.281.14-.141.141-.14.14-.141.141-.141.141-.421.562h-.281l-.141.14v.141l-.14.14-.141.141v.281h-.281l-.141.281-.14.141v.281H12.73l.141-.141H12.73v.141h-.14v.14h-.141v.141h-.14v.141h-.141l-.141.14v.141h-.14v.14l-.141.141v.14l-.14.141-.141.14-.14.141v.14h-.141V91.2h-.14v.141l-.141.14-.14.141-.141.14-.141.141H10.2v.14l-.14-.14-.141.14h-.14v-.281l.14-.14V91.48l.141-.14H9.919v.14l-.14.141v0H9.638v.14H9.5l-.141-.14L9.5,91.34V91.2H9.357v.562h.422v.281h.281v.281H9.919v.141h-.14v.141H9.638v.281l-.14.14-.141.141H9.216l.141-.141-.141-.14v-.422l-.14-.141H8.935v-.14H8.8v.14h.281v.141h.14v.843h0v.281l-.14.141v.141l-.141.14v.141H8.8l-.141.14v.281l.141-.14v.14H8.654v.141h-.14v0l-.141-.141v-.14l-.14-.141H8.092v-.14H7.811l-.141.14H7.53v.141l-.141.14h-.14v.141h.14v-.141l.141-.281h.14l.141-.14.14.14h.141l.141.141v.14l.14.281-.14.141v.14l-.141.282-.281.281-.141.14v.141l-.14.14-.141.141v.14l-.14.141v.141l-.281.281-.141.281h-.14v.14l-.141.141v.14H6.405v-.281L2.329,91.9V66.04l2.249-2.389h.141l3.795-5.482.281-.421v-.141h.14l.141-.14v-.281l.14-.141.141-.141H9.5l.14-.281.141-.14h.14v-.141h1.827l.281-.14h1.406v-.141h.281l.281-.14.281-.141h.984v-.141h.281V55.5h.141v-.141h.14l.141-.281h.14l.141-.14.141-.141v-.14l.14-.141v-.141l.141-.14v-.422h.14v-.281l.281-.281.281-.14h.141l.281-.141.422-.281.7-.422.7-.281.281-.14.563-.141.843-.281.984-.281,1.405-.422h.141l1.546.141,2.53.14,2.67.141L30.721,51l.562-.562,3.233-3.373,7.027-7.309h.141l2.53-2.67,3.373-3.374,1.406-1.405,2.951-3.092H44.917v-.141l-.563-.14h-.14l-.141-.141-.7-.281H43.23l-.843-.281h-.141l-.14-.141h-.141l-.422-.14h-.281l-.14-.141-.422-.14-.422-.141L40,27.389h-.281l-.14-.141H39.3l-.282-.141-.281-.14h-.421v-.141H38.03l-.7-.281h-.141l-.562-.14-.281-.141H36.2l-.7-.281-.422-.141-.422-.14h-.14l-.141-.141h-.14l-.422-.14-.843-.281h-.141L32.548,25h-.141l-.281-.14-.421-.141h-.281l-.141-.141-.562-.14L30.44,24.3l-.562-.14-.282-.141h-.281v-.14h-.14l-.422-.141h-.14l-.844-.281-.14-.14h-.281l-.141-.141h-.281l-.141-.141-.421-.14h-.281l-.141-.141-.422-.14h-.281l-.281-.141-.562-.14-.422-.141h-.14l-.141-.14-.14-.141-.562-.562L22.85,21.2l-.141-.14-.421-.422-.281-.281-.422-.422-.281-.281-.141-.14h-.421l-.141-.141H20.32l-.141-.14h-.14L19.9,19.1l-.14-.141-.141-.281-.14-.281v-.281h-.141l-.14-.14-.141-.141h-.14V17.69h-.282v-.562l-.14-.562v-.141l-.141-.14V16l-.562-.281h-.562v-.141l-.141-.14-.14-.281v-.282l-.141-.281-.14-.281-.141-.14h-.14L16.1,13.9l-.421-.422-.141-.141v-.14l-.14-.281-.141-.281-.14-.141v-.422l-.281-.421v-.141l-.141-.14v-.141h-.141l-.14-.14V10.8l-.141-.14v-.141h.141v-.14l.14-.141.141-.14.141-.281.281-.282.14-.14.141-.281.14-.141v-.14h.141V8.7l.281-.281.14-.281.141-.141.141-.14.14-.281,1.827-3.092h.281v.14l.141-.14h-.141V4.338l.141.141v.14l.141.141h.14V4.9l.281.141v.14l.141-.14.14.14.141.141h.14l.141-.141h.14l-.14.141v.14H19.9V5.6h.141v.562h.14v.281l.141.141h0V6.446l.141.141.14.14v.141l.141.141V7.29l.14.14.141.141.14.14.141.141v.281h.14v.14l.282.282.281.281.14.14.422.422.14.14.422.422.141.141h.281l.14.14.281.281h.141v.141l.14.14.141.141h.281v.141l.281.14.141.141.14.14h.141l.14.141.141.281h.281l.281.14.422.141.14-.141h.282l.281.141h.843l.14-.141h.422v-.14H29.6v.14h.844v-.14h.281v-.141h0v-.14H31l.141-.141h.14v-.14h.141l.281-.141h.14l.141-.14h.281l.14-.141h.141V10.8l.141-.14.14-.141.281-.281h.984l.141-.14.14-.141h.141l.14-.14H34.8l.14-.141V9.538h.282V9.4H35.5l.14-.141.141-.14h.14l.281-.141v-.14h.422l.141.14h.14v.141h0V8.976h.141l.14.141.422.14.14.141h.422v.14h.562l.281-.14h.563l.14.14h.141l.14.141.141.141.14.281h.844L41.4,9.96l.14-.14h.7V9.679h.422l.14-.141h.141V9.4h.14l.141-.141h.141l.14-.14h.141l.14-.141.141-.14h.14V8.7h.141v-.14H44.5V8.414h.422V8.273h.14v-.14h.281l.141-.141h.281V7.711h.14l.141-.14V7.43l.281-.14.281-.141h.141v-.14h.14l.141-.141h.281l.141-.141h.281v-.14h1.265v.14h.14l.141.141.14.141h.141l.14.14h.422l.281-.14h2.249l.14-.141.141.141V6.868l.141.141.14-.141.141-.141h.14v-.14h.141V6.446h.14l.422-.14.141-.141h.14v-.14h.141V5.884h.843l.141-.14.14-.141h1.406l.421.141h.141l.281.14v.141h.422l.14.14h.281l.281-.14h.422l.281-.141h.422l.14-.14h.562l.282-.141V5.462h1.124v-.14h.141V5.181h.281l.14-.281.141-.14.14-.141h.7v-.14h.422l.14.14h.7v-.14H65.3l.281-.141h.281v0h-.141l.141-.141h.562l.141.141.281-.141h.14l.141-.14h.14l.141-.141h.281v-.14l.141.14v-.14h.14l.141-.141h.14l.141-.14h.14l.281-.141.141-.14h.14l.141-.141h.141l.14-.14.141-.141.14-.141.141-.281.14-.14V2.089l.141-.14V1.668l.14-.141-.14.141v.14h-.141v.281l.141-.421V1.527h.14l.141-.141.141-.14h.14V1.105h.141l.14.141.281-.141h.141l.14-.14H71.9V.824h-.141v0h.281"/>
      </g>
    </g>
  </g>
</svg>